<svg xmlns="http://www.w3.org/2000/svg" xml:space="preserve" viewBox="0 0 400 225"><path d="M0 0h400v225H0z" style="fill:none"/><path d="M21.856 8.511c-6.648 0-12 5.352-12 12v36c0 6.648 5.352 12 12 12h6l10 12 10-12h50c6.648 0 12-5.352 12-12v-36c0-6.648-5.352-12-12-12z" style="font-variation-settings:normal;opacity:.1;vector-effect:none;fill:#000;fill-opacity:1;stroke-width:1;stroke-linecap:butt;stroke-linejoin:miter;stroke-miterlimit:4;stroke-dasharray:none;stroke-dashoffset:0;stroke-opacity:1;-inkscape-stroke:none;stop-color:#000" transform="translate(101.242 21.293)"/><path d="M19.856 6.511c-6.648 0-12 5.352-12 12v36c0 6.648 5.352 12 12 12h6l10 12 10-12h50c6.648 0 12-5.352 12-12v-36c0-6.648-5.352-12-12-12z" style="font-variation-settings:normal;vector-effect:none;fill:#8d43ac;fill-opacity:1;stroke-width:1;stroke-linecap:butt;stroke-linejoin:miter;stroke-miterlimit:4;stroke-dasharray:none;stroke-dashoffset:0;stroke-opacity:1;-inkscape-stroke:none;stop-color:#000" transform="translate(101.242 21.293)"/><g fill="#fff" transform="translate(94.099 7.803)"><circle cx="45" cy="50" r="6"/><circle cx="65" cy="50" r="6"/><circle cx="85" cy="50" r="6"/></g><path d="M216.702 8.511c6.648 0 12 5.352 12 12v36c0 6.648-5.352 12-12 12h-6l-10 12-10-12h-50c-6.648 0-12-5.352-12-12v-36c0-6.648 5.352-12 12-12z" style="font-variation-settings:normal;opacity:.1;vector-effect:none;fill:#000;fill-opacity:1;stroke-width:1;stroke-linecap:butt;stroke-linejoin:miter;stroke-miterlimit:4;stroke-dasharray:none;stroke-dashoffset:0;stroke-opacity:1;-inkscape-stroke:none;stop-color:#000" transform="translate(62.199 67.33)"/><path d="M214.702 6.511c6.648 0 12 5.352 12 12v36c0 6.648-5.352 12-12 12h-6l-10 12-10-12h-50c-6.648 0-12-5.352-12-12v-36c0-6.648 5.352-12 12-12z" style="font-variation-settings:normal;vector-effect:none;fill:#f3c84d;fill-opacity:1;stroke-width:1;stroke-linecap:butt;stroke-linejoin:miter;stroke-miterlimit:4;stroke-dasharray:none;stroke-dashoffset:0;stroke-opacity:1;-inkscape-stroke:none;stop-color:#000" transform="translate(62.199 67.33)"/><g fill="#fff" transform="translate(173.901 53.84)"><circle cx="45" cy="50" r="6"/><circle cx="65" cy="50" r="6"/><circle cx="85" cy="50" r="6"/></g><path d="M56.953 119.25c-6.648 0-12 5.352-12 12v36c0 6.648 5.352 12 12 12h6l10 12 10-12h50c6.648 0 12-5.352 12-12v-36c0-6.648-5.352-12-12-12z" style="font-variation-settings:normal;opacity:.1;vector-effect:none;fill:#000;fill-opacity:1;stroke-width:1;stroke-linecap:butt;stroke-linejoin:miter;stroke-miterlimit:4;stroke-dasharray:none;stroke-dashoffset:0;stroke-opacity:1;-inkscape-stroke:none;stop-color:#000" transform="translate(78.995 5.946)"/><path d="M54.953 117.25c-6.648 0-12 5.352-12 12v36c0 6.648 5.352 12 12 12h6l10 12 10-12h50c6.648 0 12-5.352 12-12v-36c0-6.648-5.352-12-12-12z" style="font-variation-settings:normal;vector-effect:none;fill:#d85d6e;fill-opacity:1;stroke-width:1;stroke-linecap:butt;stroke-linejoin:miter;stroke-miterlimit:4;stroke-dasharray:none;stroke-dashoffset:0;stroke-opacity:1;-inkscape-stroke:none;stop-color:#000" transform="translate(78.995 5.946)"/><g fill="#fff" transform="translate(106.948 103.197)"><circle cx="45" cy="50" r="6"/><circle cx="65" cy="50" r="6"/><circle cx="85" cy="50" r="6"/></g></svg>